<mxfile host="65bd71144e">
    <diagram id="ExdccTZqctQwAvQB16s_" name="Page-1">
        <mxGraphModel dx="1266" dy="879" grid="0" gridSize="10" guides="1" tooltips="1" connect="1" arrows="1" fold="1" page="0" pageScale="1" pageWidth="827" pageHeight="1169" math="0" shadow="0">
            <root>
                <mxCell id="0"/>
                <mxCell id="1" parent="0"/>
                <mxCell id="2M91R3iAnrZrVvDSjcHK-1" value="Node A&lt;br&gt;behind a NAT" style="rounded=0;whiteSpace=wrap;html=1;fontStyle=1" parent="1" vertex="1">
                    <mxGeometry y="120" width="120" height="41" as="geometry"/>
                </mxCell>
                <mxCell id="2M91R3iAnrZrVvDSjcHK-2" value="Node B" style="rounded=0;whiteSpace=wrap;html=1;fontStyle=1" parent="1" vertex="1">
                    <mxGeometry x="360" y="121" width="120" height="39" as="geometry"/>
                </mxCell>
                <mxCell id="2M91R3iAnrZrVvDSjcHK-28" value="" style="endArrow=none;dashed=1;html=1;fontSize=12;entryX=0.5;entryY=1;entryDx=0;entryDy=0;" parent="1" target="2M91R3iAnrZrVvDSjcHK-1" edge="1">
                    <mxGeometry width="50" height="50" relative="1" as="geometry">
                        <mxPoint x="60" y="579" as="sourcePoint"/>
                        <mxPoint x="80" y="230" as="targetPoint"/>
                    </mxGeometry>
                </mxCell>
                <mxCell id="2M91R3iAnrZrVvDSjcHK-29" value="" style="endArrow=none;dashed=1;html=1;fontSize=12;entryX=0.5;entryY=1;entryDx=0;entryDy=0;" parent="1" target="2M91R3iAnrZrVvDSjcHK-2" edge="1">
                    <mxGeometry width="50" height="50" relative="1" as="geometry">
                        <mxPoint x="420" y="571" as="sourcePoint"/>
                        <mxPoint x="70" y="171" as="targetPoint"/>
                    </mxGeometry>
                </mxCell>
                <mxCell id="22" value="" style="endArrow=classic;html=1;" parent="1" edge="1">
                    <mxGeometry width="50" height="50" relative="1" as="geometry">
                        <mxPoint x="59" y="236" as="sourcePoint"/>
                        <mxPoint x="419" y="236" as="targetPoint"/>
                    </mxGeometry>
                </mxCell>
                <mxCell id="23" value="FINDNODE" style="edgeLabel;html=1;align=center;verticalAlign=middle;resizable=0;points=[];fontSize=13;" parent="22" vertex="1" connectable="0">
                    <mxGeometry x="0.2111" y="2" relative="1" as="geometry">
                        <mxPoint x="-173" y="-8" as="offset"/>
                    </mxGeometry>
                </mxCell>
                <mxCell id="30" value="" style="endArrow=classic;html=1;" parent="1" edge="1">
                    <mxGeometry width="50" height="50" relative="1" as="geometry">
                        <mxPoint x="59" y="376" as="sourcePoint"/>
                        <mxPoint x="750" y="379" as="targetPoint"/>
                    </mxGeometry>
                </mxCell>
                <mxCell id="31" value="Random packet" style="edgeLabel;html=1;align=center;verticalAlign=middle;resizable=0;points=[];fontSize=13;" parent="30" vertex="1" connectable="0">
                    <mxGeometry x="0.2111" y="2" relative="1" as="geometry">
                        <mxPoint x="-366" y="-17" as="offset"/>
                    </mxGeometry>
                </mxCell>
                <mxCell id="32" value="" style="endArrow=classic;html=1;" parent="1" edge="1">
                    <mxGeometry width="50" height="50" relative="1" as="geometry">
                        <mxPoint x="420" y="298" as="sourcePoint"/>
                        <mxPoint x="60" y="298" as="targetPoint"/>
                    </mxGeometry>
                </mxCell>
                <mxCell id="33" value="NODES" style="edgeLabel;html=1;align=center;verticalAlign=middle;resizable=0;points=[];fontSize=13;" parent="32" vertex="1" connectable="0">
                    <mxGeometry x="-0.2167" y="-2" relative="1" as="geometry">
                        <mxPoint x="111" y="-17" as="offset"/>
                    </mxGeometry>
                </mxCell>
                <mxCell id="47" value="Node C&lt;br&gt;behind a NAT" style="rounded=0;whiteSpace=wrap;html=1;fontStyle=1" vertex="1" parent="1">
                    <mxGeometry x="694" y="120" width="120" height="39" as="geometry"/>
                </mxCell>
                <mxCell id="48" value="" style="endArrow=none;dashed=1;html=1;fontSize=12;entryX=0.5;entryY=1;entryDx=0;entryDy=0;" edge="1" parent="1" target="47">
                    <mxGeometry width="50" height="50" relative="1" as="geometry">
                        <mxPoint x="754" y="576" as="sourcePoint"/>
                        <mxPoint x="766" y="175" as="targetPoint"/>
                    </mxGeometry>
                </mxCell>
                <mxCell id="49" value="NAT" style="ellipse;whiteSpace=wrap;html=1;" vertex="1" parent="1">
                    <mxGeometry x="129" y="120" width="87" height="44" as="geometry"/>
                </mxCell>
                <mxCell id="50" value="" style="endArrow=none;dashed=1;html=1;fontSize=12;entryX=0.5;entryY=1;entryDx=0;entryDy=0;" edge="1" parent="1" target="49">
                    <mxGeometry width="50" height="50" relative="1" as="geometry">
                        <mxPoint x="173" y="573" as="sourcePoint"/>
                        <mxPoint x="70" y="171" as="targetPoint"/>
                    </mxGeometry>
                </mxCell>
                <mxCell id="51" value="NAT" style="ellipse;whiteSpace=wrap;html=1;" vertex="1" parent="1">
                    <mxGeometry x="605" y="120" width="87" height="44" as="geometry"/>
                </mxCell>
                <mxCell id="52" value="" style="endArrow=none;dashed=1;html=1;fontSize=12;entryX=0.5;entryY=1;entryDx=0;entryDy=0;" edge="1" parent="1" target="51">
                    <mxGeometry width="50" height="50" relative="1" as="geometry">
                        <mxPoint x="649" y="573" as="sourcePoint"/>
                        <mxPoint x="546" y="171" as="targetPoint"/>
                    </mxGeometry>
                </mxCell>
                <mxCell id="36" value="NAT rejects this packet" style="shape=note;whiteSpace=wrap;html=1;backgroundOutline=1;darkOpacity=0.05;fontColor=#FFFF00;" parent="1" vertex="1">
                    <mxGeometry x="525" y="342" width="202" height="56" as="geometry"/>
                </mxCell>
            </root>
        </mxGraphModel>
    </diagram>
</mxfile>